<svg width="36" height="29" viewBox="0 0 36 29" fill="none" xmlns="http://www.w3.org/2000/svg">
<path d="M2.07405 0.00980409C1.48805 0.11232 0.963295 0.465163 0.615228 0.990712C0.267162 1.51626 0.124294 2.17147 0.218054 2.81219C0.311814 3.45291 0.634522 4.02667 1.11518 4.40724C1.59585 4.78781 2.19509 4.94402 2.78109 4.8415H9.40964L9.80736 6.04943L11.6192 12.0891L13.431 18.1287C13.6077 18.7568 14.359 19.3366 14.9334 19.3366H30.4001C31.0187 19.3366 31.7258 18.7568 31.9025 18.1287L35.4819 6.04943C35.6587 5.42131 35.3936 4.8415 34.7749 4.8415H15.1544L13.4752 1.36268C13.2963 0.963385 13.0201 0.6258 12.6771 0.3871C12.334 0.148399 11.9374 0.0178417 11.5308 0.00980408L2.69271 0.00980409C2.56041 -0.00326803 2.4273 -0.00326803 2.295 0.00980408C2.2067 0.00400082 2.11816 0.00400082 2.02986 0.00980408L2.07405 0.00980409ZM16.0382 24.1683C14.8009 24.1683 13.8287 25.2313 13.8287 26.5842C13.8287 27.937 14.8009 29 16.0382 29C17.2755 29 18.2477 27.937 18.2477 26.5842C18.2477 25.2313 17.2755 24.1683 16.0382 24.1683ZM29.2953 24.1683C28.058 24.1683 27.0858 25.2313 27.0858 26.5842C27.0858 27.937 28.058 29 29.2953 29C30.5326 29 31.5048 27.937 31.5048 26.5842C31.5048 25.2313 30.5326 24.1683 29.2953 24.1683Z" fill="#F9F9F9"/>
</svg>
