<?xml version="1.0" encoding="UTF-8"?>
<!DOCTYPE svg PUBLIC "-//W3C//DTD SVG 1.1//EN" "http://www.w3.org/Graphics/SVG/1.1/DTD/svg11.dtd">
<svg xmlns="http://www.w3.org/2000/svg" version="1.1" width="500px" height="500px" style="shape-rendering:geometricPrecision; text-rendering:geometricPrecision; image-rendering:optimizeQuality; fill-rule:evenodd; clip-rule:evenodd" xmlns:xlink="http://www.w3.org/1999/xlink">
<g><path style="opacity:0.997" fill="#010101" d="M 228.5,-0.5 C 242.5,-0.5 256.5,-0.5 270.5,-0.5C 297.456,2.07292 323.456,8.73958 348.5,19.5C 437.608,62.3134 487.941,132.98 499.5,231.5C 499.5,242.167 499.5,252.833 499.5,263.5C 489.621,364.857 438.621,437.024 346.5,480C 339.696,482.431 333.029,484.931 326.5,487.5C 308.283,493.677 289.616,497.677 270.5,499.5C 256.5,499.5 242.5,499.5 228.5,499.5C 214.048,498.034 199.715,495.367 185.5,491.5C 183.898,489.926 181.898,489.259 179.5,489.5C 177.485,488.076 175.152,487.41 172.5,487.5C 172.167,487.5 171.833,487.5 171.5,487.5C 97.3566,461.023 45.3566,411.357 15.5,338.5C 7.22205,316.427 1.88872,293.761 -0.5,270.5C -0.5,256.5 -0.5,242.5 -0.5,228.5C 0.594993,218.743 2.26166,209.076 4.5,199.5C 5.91301,196.781 6.57968,193.781 6.5,190.5C 6.36596,188.708 6.69929,187.042 7.5,185.5C 9.07394,183.898 9.74061,181.898 9.5,179.5C 10.6996,172.902 12.6996,166.569 15.5,160.5C 41.7552,95.5776 86.7552,48.5776 150.5,19.5C 159.742,14.9748 169.408,11.6415 179.5,9.5C 181.898,9.74061 183.898,9.07394 185.5,7.5C 199.715,3.63281 214.048,0.966146 228.5,-0.5 Z"/></g>
<g><path style="opacity:0.922" fill="#757575" d="M 185.5,7.5 C 183.898,9.07394 181.898,9.74061 179.5,9.5C 181.214,8.26162 183.214,7.59495 185.5,7.5 Z"/></g>
<g><path style="opacity:1" fill="#fdfdfd" d="M 231.5,90.5 C 289.642,112.161 347.642,134.327 405.5,157C 386.308,164.759 366.974,172.259 347.5,179.5C 328.5,171 309.5,162.5 290.5,154C 288.087,153.516 285.754,153.85 283.5,155C 272.35,159.743 261.35,164.743 250.5,170C 269.581,177.805 288.581,185.805 307.5,194C 288.151,201.592 268.651,208.758 249,215.5C 196.836,196.78 145.003,177.28 93.5,157C 139.682,135.075 185.682,112.908 231.5,90.5 Z"/></g>
<g><path style="opacity:0.05" fill="#eeeeee" d="M 348.5,19.5 C 355.905,21.1982 362.905,24.0315 369.5,28C 443.485,70.8527 486.819,134.686 499.5,219.5C 499.5,223.5 499.5,227.5 499.5,231.5C 487.941,132.98 437.608,62.3134 348.5,19.5 Z"/></g>
<g><path style="opacity:0.056" fill="#eeeeee" d="M 150.5,19.5 C 86.7552,48.5776 41.7552,95.5776 15.5,160.5C 15.4207,157.729 15.9207,155.063 17,152.5C 43.2164,93.2843 85.3831,49.451 143.5,21C 145.74,20.023 148.073,19.523 150.5,19.5 Z"/></g>
<g><path style="opacity:1" fill="#fefefe" d="M 405.5,176.5 C 406.499,235.331 406.832,294.331 406.5,353.5C 357.5,371.5 308.5,389.5 259.5,407.5C 259.167,348.83 259.5,290.163 260.5,231.5C 276.167,225.5 291.833,219.5 307.5,213.5C 308.333,229.823 308.833,246.156 309,262.5C 321.587,257.304 334.254,252.304 347,247.5C 347.167,231.156 347.667,214.823 348.5,198.5C 367.599,191.139 386.599,183.805 405.5,176.5 Z"/></g>
<g><path style="opacity:1" fill="#fefefe" d="M 239.5,231.5 C 239.832,290.336 239.499,349.002 238.5,407.5C 190.078,389.791 141.745,371.791 93.5,353.5C 92.5,294.837 92.1667,236.17 92.5,177.5C 141.598,195.215 190.598,213.215 239.5,231.5 Z"/></g>
<g><path style="opacity:0.922" fill="#757575" d="M 9.5,179.5 C 9.74061,181.898 9.07394,183.898 7.5,185.5C 7.59495,183.214 8.26162,181.214 9.5,179.5 Z"/></g>
<g><path style="opacity:0.906" fill="#737373" d="M 6.5,190.5 C 6.57968,193.781 5.91301,196.781 4.5,199.5C 4.42032,196.219 5.08699,193.219 6.5,190.5 Z"/></g>
<g><path style="opacity:1" fill="#383838" d="M 239.5,231.5 C 240.831,290.335 240.831,349.335 239.5,408.5C 238.893,408.376 238.56,408.043 238.5,407.5C 239.499,349.002 239.832,290.336 239.5,231.5 Z"/></g>
<g><path style="opacity:1" fill="#060606" d="M 170.5,332.5 C 171.126,339.584 170.459,346.25 168.5,352.5C 156.23,347.966 143.897,343.632 131.5,339.5C 131.17,332.468 131.503,325.468 132.5,318.5C 145.188,323.18 157.854,327.847 170.5,332.5 Z"/></g>
<g><path style="opacity:1" fill="#6f6f6f" d="M 170.5,332.5 C 171.491,339.313 171.825,346.313 171.5,353.5C 170.209,353.737 169.209,353.404 168.5,352.5C 170.459,346.25 171.126,339.584 170.5,332.5 Z"/></g>
<g><path style="opacity:0.035" fill="#ebebeb" d="M 499.5,263.5 C 499.5,268.833 499.5,274.167 499.5,279.5C 485.197,373.583 434.863,440.75 348.5,481C 341.531,484.49 334.198,486.657 326.5,487.5C 333.029,484.931 339.696,482.431 346.5,480C 438.621,437.024 489.621,364.857 499.5,263.5 Z"/></g>
<g><path style="opacity:0.065" fill="#ececec" d="M 15.5,338.5 C 45.3566,411.357 97.3566,461.023 171.5,487.5C 103.503,465.223 53.6698,421.89 22,357.5C 18.6783,351.532 16.5117,345.198 15.5,338.5 Z"/></g>
<g><path style="opacity:0.933" fill="#6f6f6f" d="M 172.5,487.5 C 175.152,487.41 177.485,488.076 179.5,489.5C 176.848,489.59 174.515,488.924 172.5,487.5 Z"/></g>
<g><path style="opacity:0.925" fill="#7a7a7a" d="M 179.5,489.5 C 181.898,489.259 183.898,489.926 185.5,491.5C 183.214,491.405 181.214,490.738 179.5,489.5 Z"/></g>
</svg>
