<svg width="24" height="34" viewBox="0 0 24 34" fill="none" xmlns="http://www.w3.org/2000/svg">
<path d="M9.41749 0V4.24469H5.97437C2.85262 4.24469 0.23585 6.66417 0.23585 9.55056V11.6729C0.23585 14.5593 2.25581 16.9363 5.23984 17.6579L16.9923 20.4594C17.635 20.6292 18.5532 21.6904 18.5532 22.3271V24.4494C18.5532 25.0437 18.0482 25.5106 17.4055 25.5106H5.92846C5.37757 25.5106 4.96439 25.3408 4.78076 25.2559V21.2659H0.189941V25.5106C0.189941 26.9538 1.10811 28.1848 2.2099 28.8215C3.26579 29.5006 4.59713 29.7553 5.92846 29.7553H9.37158V34H13.9624V29.7553H17.4055C20.5732 29.7553 23.144 27.3783 23.144 24.4494V22.3271C23.144 19.4407 21.1241 17.0637 18.14 16.3421L6.38755 13.5406C5.74483 13.3708 4.82667 12.3096 4.82667 11.6729V9.55056C4.82667 8.9563 5.33166 8.48939 5.97437 8.48939H17.4514C17.9564 8.48939 18.4155 8.65918 18.5991 8.74407V12.7341H23.1899V8.48939C23.1899 7.04619 22.2718 5.81523 21.17 5.17853C20.1141 4.49938 18.7828 4.24469 17.4514 4.24469H14.0083V0L9.41749 0Z" fill="#F9F9F9"/>
</svg>
